HIERARCHY
ROOT Pelvis
{
	OFFSET 0.000000 0.000000 0.000000
	CHANNELS 6 Xposition Yposition Zposition Xrotation Yrotation Zrotation
	JOINT LeftUpLeg_virtual
	{
		OFFSET 0.000000 0.000000 0.000000
		CHANNELS 3 Xrotation Yrotation Zrotation
		JOINT LeftUpLeg
		{
			OFFSET 18.735201 -5.666702 -4.541200
			CHANNELS 3 Xrotation Yrotation Zrotation
			JOINT LeftLeg
			{
				OFFSET -0.021200 -31.938179 0.493100
				CHANNELS 3 Xrotation Yrotation Zrotation
				JOINT LeftFoot
				{
					OFFSET 0.021200 -31.938179 -4.336299
					CHANNELS 3 Xrotation Yrotation Zrotation
					JOINT LeftToeBase
					{
						OFFSET 0.943001 -26.722000 15.023500
						CHANNELS 3 Xrotation Yrotation Zrotation
						End Site
						{
							OFFSET 0 0 0
						}
					}
				}
			}
		}
	}
	JOINT RightUpLeg_virtual
	{
		OFFSET 0.000000 0.000000 0.000000
		CHANNELS 3 Xrotation Yrotation Zrotation
		JOINT RightUpLeg
		{
			OFFSET -18.735201 -5.666702 -4.541200
			CHANNELS 3 Xrotation Yrotation Zrotation
			JOINT RightLeg
			{
				OFFSET 0.018946 -31.938133 0.493100
				CHANNELS 3 Xrotation Yrotation Zrotation
				JOINT RightFoot
				{
					OFFSET -0.018946 -31.938126 -4.336299
					CHANNELS 3 Xrotation Yrotation Zrotation
					JOINT RightToeBase
					{
						OFFSET -0.943001 -26.722004 15.023500
						CHANNELS 3 Xrotation Yrotation Zrotation
						End Site
						{
							OFFSET 0 0 0
						}
					}
				}
			}
		}
	}
	JOINT Hips_virtual
	{
		OFFSET 0.000000 0.000000 0.000000
		CHANNELS 3 Xrotation Yrotation Zrotation
		JOINT Hips
		{
			OFFSET -0.000000 -0.000000 -0.000000
			CHANNELS 3 Xrotation Yrotation Zrotation
			JOINT Spine
			{
				OFFSET 0.000000 10.199997 -0.299500
				CHANNELS 3 Xrotation Yrotation Zrotation
				JOINT Spine1
				{
					OFFSET 0.000000 11.900002 -1.516600
					CHANNELS 3 Xrotation Yrotation Zrotation
					JOINT Spine2
					{
						OFFSET 0.000000 13.600006 -2.842500
						CHANNELS 3 Xrotation Yrotation Zrotation
						JOINT Neck_virtual
						{
							OFFSET 0.000000 0.000000 0.000000
							CHANNELS 3 Xrotation Yrotation Zrotation
							JOINT Neck
							{
								OFFSET 0.000000 9.624100 -2.890100
								CHANNELS 3 Xrotation Yrotation Zrotation
								JOINT Head
								{
									OFFSET 0.000000 14.068802 -1.351900
									CHANNELS 3 Xrotation Yrotation Zrotation
									End Site
									{
										OFFSET 0 0 0
									}
								}
							}
						}
						JOINT LeftShoulder_virtual
						{
							OFFSET 0.000000 0.000000 0.000000
							CHANNELS 3 Xrotation Yrotation Zrotation
							JOINT LeftShoulder
							{
								OFFSET 15.263000 10.923401 -0.547700
								CHANNELS 3 Xrotation Yrotation Zrotation
								JOINT LeftArm
								{
									OFFSET 25.438599 -2.830597 -13.032500
									CHANNELS 3 Xrotation Yrotation Zrotation
									JOINT LeftForeArm
									{
										OFFSET 29.960503 0.000000 0.000000
										CHANNELS 3 Xrotation Yrotation Zrotation
										JOINT LeftHand
										{
											OFFSET 27.849251 0.000000 0.000000
											CHANNELS 3 Xrotation Yrotation Zrotation
											End Site
											{
												OFFSET 0 0 0
											}
										}
									}
								}
							}
						}
						JOINT RightShoulder_virtual
						{
							OFFSET 0.000000 0.000000 0.000000
							CHANNELS 3 Xrotation Yrotation Zrotation
							JOINT RightShoulder
							{
								OFFSET -15.263000 10.923401 -0.547700
								CHANNELS 3 Xrotation Yrotation Zrotation
								JOINT RightArm
								{
									OFFSET -25.438599 -2.830597 -13.032500
									CHANNELS 3 Xrotation Yrotation Zrotation
									JOINT RightForeArm
									{
										OFFSET -29.960503 0.000000 0.000000
										CHANNELS 3 Xrotation Yrotation Zrotation
										JOINT RightHand
										{
											OFFSET -27.849251 0.000000 0.000000
											CHANNELS 3 Xrotation Yrotation Zrotation
											End Site
											{
												OFFSET 0 0 0
											}
										}
									}
								}
							}
						}
					}
				}
			}
		}
	}
}
MOTION
Frames: 11
Frame Time: 0.03333333
0.640074 92.884117 2.446953 0.000000 0.000000 0.000000 6.980099 -8.720173 -1.301565 -31.703563 9.184579 14.511862 36.293385 3.388034 -1.024606 -11.236875 3.946818 -4.540130 0.000000 0.000000 0.000000 8.139699 -11.785763 4.836771 -19.824207 -9.455258 -10.889564 28.309913 -4.845396 -1.522013 -19.992855 -8.174991 5.609878 0.000000 0.000000 0.000000 -1.661245 -3.495841 0.885919 -3.403077 6.440228 1.540108 5.443204 1.606196 -1.288270 1.864843 0.971641 -1.113626 0.000000 0.000000 0.000000 3.300766 1.101118 -0.368237 -0.262645 0.723262 -0.119871 0.000000 0.000000 0.000000 2.762604 -0.648629 -1.748816 0.119752 -8.656431 -12.238662 -6.994027 -16.751167 -47.764759 3.807531 -53.405877 0.188752 0.000000 0.000000 0.000000 3.497851 1.492616 0.260961 1.085556 13.102700 6.648384 -5.034490 28.373577 42.470407 12.120388 72.827234 -8.953924 0.000000 0.000000 0.000000 
1.012031 92.483192 2.685823 0.000000 0.000000 0.000000 6.944368 -9.285935 -1.031765 -31.895382 8.971123 14.801952 35.860351 3.695430 -1.146415 -11.625966 4.335356 -4.607743 0.000000 0.000000 0.000000 8.303014 -11.873273 5.349185 -19.702852 -9.626503 -10.363492 27.487581 -5.046553 -1.621705 -20.885771 -8.341535 5.290492 0.000000 0.000000 0.000000 -2.758479 -4.494535 0.501364 -1.698357 7.649962 2.940340 4.991770 1.187636 -1.573310 1.650070 1.007291 -0.946358 0.000000 0.000000 0.000000 3.506223 1.047562 -0.380361 -0.164353 0.829070 -0.036956 0.000000 0.000000 0.000000 2.240644 -1.017344 -1.815575 0.541805 -8.975412 -12.895679 -5.323706 -17.215767 -46.103371 5.932870 -52.914227 2.020510 0.000000 0.000000 0.000000 3.096021 1.551593 0.260485 1.142558 13.330481 7.251559 -2.983444 30.108768 41.349637 14.886855 75.717011 -11.550520 0.000000 0.000000 0.000000 
0.773887 92.271278 3.012350 0.000000 0.000000 0.000000 6.933505 -8.591925 -0.987644 -31.811483 9.111426 14.890137 35.346588 3.894666 -1.069573 -11.941063 4.546182 -4.423220 0.000000 0.000000 0.000000 8.074815 -12.075135 5.164461 -19.900760 -9.587421 -10.543976 26.687873 -5.307881 -1.636660 -21.511944 -8.607526 5.052656 0.000000 0.000000 0.000000 -1.481707 -5.736159 1.247360 -3.605639 6.583613 1.633394 5.933957 0.905863 -2.148185 1.250524 0.863908 -0.757900 0.000000 0.000000 0.000000 3.794773 0.937589 -0.291716 -0.151679 0.821959 -0.065459 0.000000 0.000000 0.000000 2.087008 -0.791339 -1.662551 0.417668 -9.757722 -13.265161 -2.907680 -16.706772 -43.353362 7.650193 -49.831718 3.691127 0.000000 0.000000 0.000000 2.752445 1.625171 0.192487 1.290538 12.956211 7.079552 -2.230492 30.376464 42.115937 14.592286 75.552028 -11.511083 0.000000 0.000000 0.000000 
0.290097 92.359947 2.489120 0.000000 0.000000 0.000000 6.787214 -8.550796 -0.892143 -32.272125 9.080651 15.159280 36.413593 3.906447 -1.261818 -11.033630 4.628198 -4.740109 0.000000 0.000000 0.000000 8.274163 -11.381605 5.409007 -19.482107 -9.474113 -10.130809 27.869412 -5.581386 -1.635827 -20.623978 -8.798965 4.840541 0.000000 0.000000 0.000000 -2.281998 -4.879195 0.633630 -0.654446 7.104734 1.000649 5.020054 0.520537 -1.791447 1.557976 1.042101 -1.138335 0.000000 0.000000 0.000000 3.708918 0.862350 -0.200710 -0.159032 0.863228 -0.042507 0.000000 0.000000 0.000000 2.431111 -1.188414 -1.853305 0.291645 -9.435234 -13.314545 -3.477662 -17.803061 -42.961610 7.492827 -51.110685 3.867833 0.000000 0.000000 0.000000 2.899850 1.614515 0.126404 1.040323 12.523542 7.920133 -3.019688 30.328506 42.157881 16.591744 77.754450 -13.518401 0.000000 0.000000 0.000000 
0.567814 92.369102 2.386137 0.000000 0.000000 0.000000 6.302044 -10.291861 -0.764771 -32.790574 8.501195 15.105151 36.194381 4.352535 -1.060871 -11.100970 5.002872 -4.163185 0.000000 0.000000 0.000000 8.543563 -11.218475 5.417308 -19.116735 -9.485645 -10.098362 27.371300 -5.053651 -1.409736 -21.087588 -8.426137 5.510967 0.000000 0.000000 0.000000 -1.455312 -4.377827 0.506919 -4.052922 6.275052 0.542974 5.538598 0.646899 -2.051247 1.032173 0.877282 -0.799058 0.000000 0.000000 0.000000 3.732327 0.575789 -0.238674 -0.399956 0.830558 -0.078895 0.000000 0.000000 0.000000 2.253107 -1.487118 -1.887561 -0.035243 -9.319364 -14.150094 -3.198005 -17.919968 -40.925947 7.345135 -50.962452 4.120298 0.000000 0.000000 0.000000 2.345034 1.504558 0.311721 0.914046 12.976048 7.662987 -3.108225 30.176725 42.565438 17.491044 80.200716 -14.396372 0.000000 0.000000 0.000000 
0.896837 92.223648 2.766277 0.000000 0.000000 0.000000 5.997597 -10.532348 -1.452673 -33.217259 8.633796 14.444648 37.105426 4.582618 -1.000779 -10.271197 5.189840 -3.920856 0.000000 0.000000 0.000000 8.649582 -10.678674 5.339725 -18.957569 -9.331123 -10.120679 27.483114 -4.995024 -1.312487 -21.083394 -8.405551 5.690911 0.000000 0.000000 0.000000 -3.589848 -7.023598 0.771119 -4.011302 9.981743 1.024092 4.960280 0.205263 -1.960491 1.782691 1.107140 -0.794956 0.000000 0.000000 0.000000 3.301169 0.739078 -0.155221 -0.181018 0.810475 -0.052617 0.000000 0.000000 0.000000 2.335090 -1.276287 -1.898627 0.572748 -8.838101 -13.457998 -3.787614 -17.556837 -41.155349 8.151083 -52.169620 4.699059 0.000000 0.000000 0.000000 2.833890 1.455650 0.348779 1.520992 12.350384 7.771139 -2.543677 31.848742 42.643060 20.430650 78.872873 -16.543034 0.000000 0.000000 0.000000 
1.193401 92.165489 3.306343 0.000000 0.000000 0.000000 6.260009 -10.722038 -1.561610 -32.791270 8.674079 14.247194 37.534499 4.930193 -1.240641 -9.808675 5.673534 -4.102203 0.000000 0.000000 0.000000 8.751688 -11.062053 5.508593 -18.689530 -9.458883 -9.877490 27.763689 -4.890141 -1.401062 -20.705777 -8.241614 5.539277 0.000000 0.000000 0.000000 -3.012229 -7.223453 0.938049 -3.456035 7.883888 1.620399 4.976906 0.512048 -1.972405 2.236399 0.461564 -0.848767 0.000000 0.000000 0.000000 4.002750 0.451927 -0.176066 -0.034517 0.667279 -0.132759 0.000000 0.000000 0.000000 2.473048 -1.350429 -2.067600 0.479143 -9.553923 -14.296818 -2.680695 -16.717998 -40.658036 7.505989 -51.466886 3.876018 0.000000 0.000000 0.000000 3.254211 1.388058 0.562614 1.895586 11.434810 8.640990 -2.596725 32.236690 42.975117 19.930647 79.505028 -15.970698 0.000000 0.000000 0.000000 
1.521579 92.796745 2.513247 0.000000 0.000000 0.000000 5.285400 -10.310596 -1.512919 -34.104890 8.506608 14.488821 37.270792 4.848099 -1.333247 -10.262986 5.651737 -4.349592 0.000000 0.000000 0.000000 8.226180 -10.748534 5.200250 -19.363337 -9.273846 -10.131643 28.514431 -4.837867 -1.401995 -20.217478 -8.102854 5.534840 0.000000 0.000000 0.000000 -2.926086 -9.215049 0.873305 -1.231282 10.400329 2.072674 5.254972 0.241307 -1.532551 1.691694 0.372964 -0.947284 0.000000 0.000000 0.000000 3.862669 0.247535 -0.292992 -0.120178 0.531620 -0.105870 0.000000 0.000000 0.000000 2.556904 -1.659164 -2.090888 0.432647 -9.067324 -14.243588 -2.955726 -15.824251 -39.618475 7.423365 -52.577294 4.658550 0.000000 0.000000 0.000000 3.461741 1.355406 0.450303 1.515694 11.206328 9.014701 -2.562290 31.224319 43.449456 20.014312 80.764733 -15.910408 0.000000 0.000000 0.000000 
1.578007 92.704964 2.482382 0.000000 0.000000 0.000000 5.257571 -9.617647 -1.724382 -34.299024 8.755965 14.425892 38.209533 4.913615 -1.404893 -9.692988 5.724663 -4.408168 0.000000 0.000000 0.000000 8.623095 -10.141966 5.213589 -18.875955 -9.175828 -10.112758 28.836543 -4.449649 -1.654414 -20.130442 -7.563416 5.366225 0.000000 0.000000 0.000000 -2.580736 -8.879967 1.357625 -3.001348 10.611745 1.749661 5.297029 0.301755 -1.815891 1.795224 0.450439 -0.846062 0.000000 0.000000 0.000000 3.662212 0.252447 -0.234596 -0.189403 0.504066 -0.126600 0.000000 0.000000 0.000000 2.310694 -1.537479 -2.114895 0.460742 -8.956833 -14.300576 -2.384948 -15.485577 -38.672821 7.696957 -51.490016 4.733909 0.000000 0.000000 0.000000 3.177323 1.240030 0.453628 1.749648 11.138090 8.479752 -4.457244 31.745179 44.452114 17.923900 80.725528 -13.974114 0.000000 0.000000 0.000000 
1.806583 92.505234 2.473673 0.000000 0.000000 0.000000 5.379278 -9.720383 -1.918937 -34.171716 8.828662 14.210067 37.799431 4.981426 -1.307696 -9.909524 5.774726 -4.238651 0.000000 0.000000 0.000000 8.567075 -10.935116 5.058139 -19.021119 -9.355073 -10.371939 28.954108 -4.308279 -1.645311 -20.093452 -7.421689 5.457663 0.000000 0.000000 0.000000 -2.408562 -9.072168 1.780677 -2.264273 10.117821 2.190097 5.520719 0.155616 -1.848296 1.870959 0.352308 -0.865150 0.000000 0.000000 0.000000 3.892103 -0.001660 -0.177610 -0.095833 0.441221 -0.185667 0.000000 0.000000 0.000000 2.584160 -1.742416 -2.025535 0.775711 -8.759362 -14.842870 -1.863418 -15.539264 -37.954009 7.429065 -52.036534 4.605889 0.000000 0.000000 0.000000 3.454950 1.140865 0.542613 1.834100 10.577210 8.030389 -6.406178 30.676606 46.326646 15.987255 81.768866 -12.043893 0.000000 0.000000 0.000000 
2.058115 92.343895 2.080936 0.000000 0.000000 0.000000 5.154252 -9.622501 -2.099877 -34.429003 8.860305 14.047426 37.456471 4.955924 -1.295892 -10.240989 5.768660 -4.261734 0.000000 0.000000 0.000000 8.362293 -11.272612 4.702427 -19.290975 -9.339610 -10.785311 29.274163 -4.110525 -1.472879 -19.912757 -7.298770 5.854766 0.000000 0.000000 0.000000 -2.580017 -8.293242 1.736117 -1.726974 9.732492 2.602640 6.035996 0.022439 -2.060772 2.001997 0.283649 -0.805969 0.000000 0.000000 0.000000 3.978955 -0.111122 -0.290728 -0.035763 0.439000 -0.223897 0.000000 0.000000 0.000000 2.712613 -1.919207 -2.003729 0.765921 -8.753239 -15.029322 -2.304156 -15.352153 -38.527977 7.675303 -52.345347 4.714770 0.000000 0.000000 0.000000 3.563013 1.067583 0.456967 2.257100 10.309813 8.188890 -5.807292 30.393635 45.844742 16.833353 82.357711 -13.168921 0.000000 0.000000 0.000000 
